<svg width="28" height="28" viewBox="0 0 28 28" fill="none" xmlns="http://www.w3.org/2000/svg">
<path d="M18.0687 8.26875C16.6764 8.26832 15.3103 8.6478 14.1176 9.36631C12.925 10.0848 11.951 11.1151 11.3006 12.3463C10.5025 11.8796 9.60761 11.6032 8.68539 11.5385C7.76317 11.4738 6.83845 11.6225 5.98302 11.9731C5.12758 12.3237 4.36447 12.8667 3.75292 13.56C3.14137 14.2533 2.69784 15.0783 2.45677 15.9708C2.21571 16.8633 2.18359 17.7993 2.36291 18.7063C2.54224 19.6132 2.92818 20.4666 3.49077 21.2002C4.05336 21.9338 4.77746 22.5278 5.60685 22.9362C6.43624 23.3446 7.3486 23.5564 8.27308 23.555L18.0687 23.5813C20.0993 23.5813 22.0467 22.7746 23.4825 21.3388C24.9183 19.903 25.725 17.9556 25.725 15.925C25.725 13.8944 24.9183 11.947 23.4825 10.5112C22.0467 9.07539 20.0993 8.26875 18.0687 8.26875Z" fill="url(#paint0_linear_15_781)"/>
<path d="M9.8962 23.3332C13.096 22.4392 14.9652 19.1205 14.0712 15.9207C13.1772 12.7209 9.85853 10.8517 6.65873 11.7457C3.45894 12.6397 1.58972 15.9584 2.48372 19.1582C3.37772 22.358 6.6964 24.2272 9.8962 23.3332Z" fill="url(#paint1_linear_15_781)"/>
<defs>
<linearGradient id="paint0_linear_15_781" x1="20.0025" y1="24.2331" x2="10.7756" y2="12.285" gradientUnits="userSpaceOnUse">
<stop stop-color="#F2F2F2"/>
<stop offset="1" stop-color="#CFCFCF"/>
</linearGradient>
<linearGradient id="paint1_linear_15_781" x1="5.81644" y1="15.397" x2="12.7863" y2="21.4673" gradientUnits="userSpaceOnUse">
<stop offset="0.02" stop-color="white"/>
<stop offset="1" stop-color="white" stop-opacity="0"/>
</linearGradient>
</defs>
</svg>
